<svg width="40" height="57" viewBox="0 0 100 127" fill="none" xmlns="http://www.w3.org/2000/svg">
<path d="M98.6648 31.835L68.0966 1.33237C67.2443 0.48192 66.0937 0 64.8864 0H4.54545C2.03125 0 0 2.0269 0 4.53571V122.464C0 124.973 2.03125 127 4.54545 127H95.4545C97.9687 127 100 124.973 100 122.464V35.0526C100 33.8478 99.517 32.6855 98.6648 31.835ZM89.517 37.1362H62.7841V10.4605L89.517 37.1362ZM89.7727 116.795H10.2273V10.2054H53.125V40.8214C53.125 42.4003 53.7535 43.9145 54.8724 45.0309C55.9912 46.1473 57.5087 46.7746 59.0909 46.7746H89.7727V116.795ZM48.8636 78.5246H22.7273C22.1023 78.5246 21.5909 79.0348 21.5909 79.6585V86.4621C21.5909 87.0857 22.1023 87.596 22.7273 87.596H48.8636C49.4886 87.596 50 87.0857 50 86.4621V79.6585C50 79.0348 49.4886 78.5246 48.8636 78.5246ZM21.5909 60.3817V67.1853C21.5909 67.8089 22.1023 68.3192 22.7273 68.3192H77.2727C77.8977 68.3192 78.4091 67.8089 78.4091 67.1853V60.3817C78.4091 59.758 77.8977 59.2478 77.2727 59.2478H22.7273C22.1023 59.2478 21.5909 59.758 21.5909 60.3817Z" fill="#C92E43"/>
</svg>
